<mxfile host="app.diagrams.net" modified="2023-08-29T15:37:56.184Z" agent="Mozilla/5.0 (Windows NT 10.0; Win64; x64) AppleWebKit/537.36 (KHTML, like Gecko) Chrome/116.0.0.0 Safari/537.36 Edg/116.0.1938.54" etag="z0L0WiyGzSu1BFeOFWBI" version="21.6.9" type="github">
  <diagram name="第 1 页" id="t5FS3aMnHCgzbePnOyH1">
    <mxGraphModel dx="956" dy="525" grid="1" gridSize="10" guides="1" tooltips="1" connect="1" arrows="1" fold="1" page="1" pageScale="1" pageWidth="827" pageHeight="1169" math="0" shadow="0">
      <root>
        <mxCell id="0" />
        <mxCell id="1" parent="0" />
        <mxCell id="CBAgTlsIs-DkMfHLFl_2-2" value="" style="edgeStyle=orthogonalEdgeStyle;rounded=0;orthogonalLoop=1;jettySize=auto;html=1;exitX=0.5;exitY=0.875;exitDx=0;exitDy=0;exitPerimeter=0;fontSize=18;" edge="1" parent="1" source="-TYATiI-0GPuza4M0UlQ-1" target="CBAgTlsIs-DkMfHLFl_2-1">
          <mxGeometry relative="1" as="geometry" />
        </mxCell>
        <mxCell id="-TYATiI-0GPuza4M0UlQ-1" value="&lt;p style=&quot;line-height: 100%; font-size: 18px;&quot;&gt;&lt;font style=&quot;font-size: 18px;&quot;&gt;Post-route design and netlist files&lt;br style=&quot;font-size: 18px;&quot;&gt;Security assets&lt;br style=&quot;font-size: 18px;&quot;&gt;Timing constraints files&lt;/font&gt;&lt;/p&gt;" style="strokeWidth=2;html=1;shape=mxgraph.flowchart.document2;whiteSpace=wrap;size=0.15416666666666642;fontSize=18;fillColor=#fff2cc;strokeColor=#000000;" parent="1" vertex="1">
          <mxGeometry x="680" y="260" width="290" height="80" as="geometry" />
        </mxCell>
        <mxCell id="CBAgTlsIs-DkMfHLFl_2-35" value="" style="edgeStyle=orthogonalEdgeStyle;rounded=0;orthogonalLoop=1;jettySize=auto;html=1;fontSize=18;" edge="1" parent="1" source="CBAgTlsIs-DkMfHLFl_2-1" target="CBAgTlsIs-DkMfHLFl_2-7">
          <mxGeometry relative="1" as="geometry" />
        </mxCell>
        <mxCell id="CBAgTlsIs-DkMfHLFl_2-1" value="Physical design flow" style="whiteSpace=wrap;html=1;strokeWidth=2;fontSize=18;fillColor=#D5E8D4;strokeColor=none;" vertex="1" parent="1">
          <mxGeometry x="680" y="360" width="290" height="50" as="geometry" />
        </mxCell>
        <mxCell id="CBAgTlsIs-DkMfHLFl_2-5" value="Grid Search Parameter Tuning" style="whiteSpace=wrap;html=1;strokeWidth=2;fontSize=18;" vertex="1" parent="1">
          <mxGeometry x="1120" y="362.5" width="170" height="45" as="geometry" />
        </mxCell>
        <mxCell id="CBAgTlsIs-DkMfHLFl_2-19" value="" style="edgeStyle=orthogonalEdgeStyle;rounded=0;orthogonalLoop=1;jettySize=auto;html=1;fontSize=18;" edge="1" parent="1" source="CBAgTlsIs-DkMfHLFl_2-7" target="CBAgTlsIs-DkMfHLFl_2-18">
          <mxGeometry relative="1" as="geometry" />
        </mxCell>
        <mxCell id="CBAgTlsIs-DkMfHLFl_2-7" value="Search done?" style="rhombus;whiteSpace=wrap;html=1;fontSize=18;" vertex="1" parent="1">
          <mxGeometry x="745" y="440" width="160" height="60" as="geometry" />
        </mxCell>
        <mxCell id="CBAgTlsIs-DkMfHLFl_2-8" value="" style="endArrow=classic;html=1;rounded=0;exitX=1;exitY=0.5;exitDx=0;exitDy=0;entryX=0.5;entryY=1;entryDx=0;entryDy=0;fontSize=18;" edge="1" parent="1" source="CBAgTlsIs-DkMfHLFl_2-7" target="CBAgTlsIs-DkMfHLFl_2-5">
          <mxGeometry width="50" height="50" relative="1" as="geometry">
            <mxPoint x="700" y="550" as="sourcePoint" />
            <mxPoint x="750" y="500" as="targetPoint" />
            <Array as="points">
              <mxPoint x="1205" y="460" />
            </Array>
          </mxGeometry>
        </mxCell>
        <mxCell id="CBAgTlsIs-DkMfHLFl_2-13" value="" style="whiteSpace=wrap;html=1;strokeWidth=2;fontSize=18;fillColor=#d5e8d4;strokeColor=none;" vertex="1" parent="1">
          <mxGeometry x="680" y="570" width="290" height="320" as="geometry" />
        </mxCell>
        <mxCell id="CBAgTlsIs-DkMfHLFl_2-14" value="No" style="text;html=1;align=center;verticalAlign=middle;resizable=0;points=[];autosize=1;strokeColor=none;fillColor=none;fontSize=18;" vertex="1" parent="1">
          <mxGeometry x="1025" y="429" width="50" height="40" as="geometry" />
        </mxCell>
        <mxCell id="CBAgTlsIs-DkMfHLFl_2-15" value="Yes" style="text;html=1;align=center;verticalAlign=middle;resizable=0;points=[];autosize=1;strokeColor=none;fillColor=none;fontSize=18;" vertex="1" parent="1">
          <mxGeometry x="777" y="490" width="50" height="40" as="geometry" />
        </mxCell>
        <mxCell id="CBAgTlsIs-DkMfHLFl_2-37" value="" style="edgeStyle=orthogonalEdgeStyle;rounded=0;orthogonalLoop=1;jettySize=auto;html=1;exitX=0.499;exitY=0.902;exitDx=0;exitDy=0;exitPerimeter=0;entryX=0.5;entryY=0;entryDx=0;entryDy=0;fontSize=18;" edge="1" parent="1" source="CBAgTlsIs-DkMfHLFl_2-18" target="CBAgTlsIs-DkMfHLFl_2-22">
          <mxGeometry relative="1" as="geometry" />
        </mxCell>
        <mxCell id="CBAgTlsIs-DkMfHLFl_2-18" value="&lt;p style=&quot;line-height: 180%; font-size: 18px;&quot;&gt;&lt;span style=&quot;font-size: 18px;&quot;&gt;Best Initial Layout&lt;/span&gt;&lt;/p&gt;" style="strokeWidth=2;html=1;shape=mxgraph.flowchart.document2;whiteSpace=wrap;size=0.25;strokeColor=#FF0000;fontSize=18;" vertex="1" parent="1">
          <mxGeometry x="725" y="520" width="200" height="35" as="geometry" />
        </mxCell>
        <mxCell id="CBAgTlsIs-DkMfHLFl_2-20" value="White Space Arrangement" style="whiteSpace=wrap;html=1;strokeWidth=2;fontSize=18;" vertex="1" parent="1">
          <mxGeometry x="1125" y="580" width="160" height="50" as="geometry" />
        </mxCell>
        <mxCell id="CBAgTlsIs-DkMfHLFl_2-31" value="" style="edgeStyle=orthogonalEdgeStyle;rounded=0;orthogonalLoop=1;jettySize=auto;html=1;fontSize=18;" edge="1" parent="1" source="CBAgTlsIs-DkMfHLFl_2-22" target="CBAgTlsIs-DkMfHLFl_2-30">
          <mxGeometry relative="1" as="geometry" />
        </mxCell>
        <mxCell id="CBAgTlsIs-DkMfHLFl_2-22" value="Re-place cells" style="whiteSpace=wrap;html=1;strokeWidth=2;strokeColor=#FF0000;fontSize=18;" vertex="1" parent="1">
          <mxGeometry x="765" y="585" width="120" height="40" as="geometry" />
        </mxCell>
        <mxCell id="CBAgTlsIs-DkMfHLFl_2-23" value="" style="endArrow=classic;html=1;rounded=0;exitX=0;exitY=0.5;exitDx=0;exitDy=0;entryX=1;entryY=0.5;entryDx=0;entryDy=0;fontSize=18;" edge="1" parent="1" source="CBAgTlsIs-DkMfHLFl_2-20" target="CBAgTlsIs-DkMfHLFl_2-22">
          <mxGeometry width="50" height="50" relative="1" as="geometry">
            <mxPoint x="1100" y="679.58" as="sourcePoint" />
            <mxPoint x="895.5" y="655" as="targetPoint" />
          </mxGeometry>
        </mxCell>
        <mxCell id="CBAgTlsIs-DkMfHLFl_2-33" value="" style="edgeStyle=orthogonalEdgeStyle;rounded=0;orthogonalLoop=1;jettySize=auto;html=1;fontSize=18;" edge="1" parent="1" source="CBAgTlsIs-DkMfHLFl_2-30" target="CBAgTlsIs-DkMfHLFl_2-32">
          <mxGeometry relative="1" as="geometry" />
        </mxCell>
        <mxCell id="CBAgTlsIs-DkMfHLFl_2-30" value="Timing Analysis" style="whiteSpace=wrap;html=1;strokeColor=#000000;strokeWidth=2;fontSize=18;" vertex="1" parent="1">
          <mxGeometry x="765" y="645" width="120" height="40" as="geometry" />
        </mxCell>
        <mxCell id="CBAgTlsIs-DkMfHLFl_2-32" value="Timing-aware Cell Insertion" style="whiteSpace=wrap;html=1;strokeColor=#000000;strokeWidth=2;fontSize=18;" vertex="1" parent="1">
          <mxGeometry x="1125" y="640" width="160" height="50" as="geometry" />
        </mxCell>
        <mxCell id="CBAgTlsIs-DkMfHLFl_2-34" value="&lt;span style=&quot;color: rgb(0, 0, 0); font-family: Helvetica; font-size: 18px; font-style: normal; font-variant-ligatures: normal; font-variant-caps: normal; font-weight: 400; letter-spacing: normal; orphans: 2; text-align: center; text-indent: 0px; text-transform: none; widows: 2; word-spacing: 0px; -webkit-text-stroke-width: 0px; background-color: rgb(251, 251, 251); text-decoration-thickness: initial; text-decoration-style: initial; text-decoration-color: initial; float: none; display: inline !important;&quot;&gt;Parameters &lt;br style=&quot;font-size: 18px;&quot;&gt;combination&lt;/span&gt;" style="text;whiteSpace=wrap;html=1;fontSize=18;" vertex="1" parent="1">
          <mxGeometry x="1010" y="338" width="100" height="50" as="geometry" />
        </mxCell>
        <mxCell id="CBAgTlsIs-DkMfHLFl_2-36" value="" style="endArrow=classic;html=1;rounded=0;exitX=0;exitY=0.5;exitDx=0;exitDy=0;entryX=1;entryY=0.5;entryDx=0;entryDy=0;fontSize=18;" edge="1" parent="1" source="CBAgTlsIs-DkMfHLFl_2-5" target="CBAgTlsIs-DkMfHLFl_2-1">
          <mxGeometry width="50" height="50" relative="1" as="geometry">
            <mxPoint x="650" y="390" as="sourcePoint" />
            <mxPoint x="700" y="340" as="targetPoint" />
          </mxGeometry>
        </mxCell>
        <mxCell id="CBAgTlsIs-DkMfHLFl_2-39" value="" style="endArrow=classic;html=1;rounded=0;exitX=0.5;exitY=1;exitDx=0;exitDy=0;entryX=1;entryY=0.5;entryDx=0;entryDy=0;fontSize=18;" edge="1" parent="1" source="CBAgTlsIs-DkMfHLFl_2-32" target="CBAgTlsIs-DkMfHLFl_2-40">
          <mxGeometry width="50" height="50" relative="1" as="geometry">
            <mxPoint x="940" y="650" as="sourcePoint" />
            <mxPoint x="1060" y="730" as="targetPoint" />
            <Array as="points">
              <mxPoint x="1205" y="720" />
            </Array>
          </mxGeometry>
        </mxCell>
        <mxCell id="CBAgTlsIs-DkMfHLFl_2-40" value="ECO cell insertion" style="whiteSpace=wrap;html=1;strokeColor=#FF0000;strokeWidth=2;fontSize=18;" vertex="1" parent="1">
          <mxGeometry x="765" y="700" width="120" height="40" as="geometry" />
        </mxCell>
        <mxCell id="CBAgTlsIs-DkMfHLFl_2-41" value="Nets to be inserted and cell locations" style="text;html=1;align=center;verticalAlign=middle;resizable=0;points=[];autosize=1;strokeColor=none;fillColor=none;fontSize=18;" vertex="1" parent="1">
          <mxGeometry x="960" y="710" width="320" height="40" as="geometry" />
        </mxCell>
        <mxCell id="CBAgTlsIs-DkMfHLFl_2-43" value="Real trojan insertion&lt;br style=&quot;font-size: 18px;&quot;&gt;&amp;amp; Evaluation" style="whiteSpace=wrap;html=1;strokeColor=#000000;strokeWidth=2;fontSize=18;" vertex="1" parent="1">
          <mxGeometry x="740" y="758" width="170" height="42" as="geometry" />
        </mxCell>
        <mxCell id="CBAgTlsIs-DkMfHLFl_2-46" value="" style="endArrow=classic;html=1;rounded=0;exitX=0.5;exitY=1;exitDx=0;exitDy=0;entryX=0.5;entryY=0;entryDx=0;entryDy=0;fontSize=18;" edge="1" parent="1" source="CBAgTlsIs-DkMfHLFl_2-30" target="CBAgTlsIs-DkMfHLFl_2-40">
          <mxGeometry width="50" height="50" relative="1" as="geometry">
            <mxPoint x="940" y="790" as="sourcePoint" />
            <mxPoint x="990" y="740" as="targetPoint" />
          </mxGeometry>
        </mxCell>
        <mxCell id="CBAgTlsIs-DkMfHLFl_2-47" value="&lt;p style=&quot;text-align: justify; line-height: 60%;&quot;&gt;&lt;font style=&quot;font-size: 14px;&quot;&gt;meet stop condition ?&lt;/font&gt;&lt;/p&gt;" style="rhombus;whiteSpace=wrap;html=1;fontSize=18;opacity=90;align=center;" vertex="1" parent="1">
          <mxGeometry x="1050" y="754" width="170" height="50" as="geometry" />
        </mxCell>
        <mxCell id="CBAgTlsIs-DkMfHLFl_2-38" value="Cells&#39; new position" style="text;html=1;align=center;verticalAlign=middle;resizable=0;points=[];autosize=1;strokeColor=none;fillColor=none;fontSize=18;" vertex="1" parent="1">
          <mxGeometry x="962" y="570" width="170" height="40" as="geometry" />
        </mxCell>
        <mxCell id="CBAgTlsIs-DkMfHLFl_2-51" value="" style="endArrow=classic;html=1;rounded=0;exitX=0.5;exitY=1;exitDx=0;exitDy=0;entryX=0.5;entryY=0;entryDx=0;entryDy=0;" edge="1" parent="1" source="CBAgTlsIs-DkMfHLFl_2-40" target="CBAgTlsIs-DkMfHLFl_2-43">
          <mxGeometry width="50" height="50" relative="1" as="geometry">
            <mxPoint x="820" y="680" as="sourcePoint" />
            <mxPoint x="870" y="630" as="targetPoint" />
          </mxGeometry>
        </mxCell>
        <mxCell id="CBAgTlsIs-DkMfHLFl_2-54" value="Yes" style="text;html=1;align=center;verticalAlign=middle;resizable=0;points=[];autosize=1;strokeColor=none;fillColor=none;" vertex="1" parent="1">
          <mxGeometry x="1060" y="804" width="40" height="30" as="geometry" />
        </mxCell>
        <mxCell id="CBAgTlsIs-DkMfHLFl_2-59" value="Yes" style="text;html=1;align=center;verticalAlign=middle;resizable=0;points=[];autosize=1;strokeColor=none;fillColor=none;" vertex="1" parent="1">
          <mxGeometry x="1132" y="835.75" width="40" height="30" as="geometry" />
        </mxCell>
        <mxCell id="CBAgTlsIs-DkMfHLFl_2-60" value="Better solution?" style="rhombus;whiteSpace=wrap;html=1;" vertex="1" parent="1">
          <mxGeometry x="1170" y="835.75" width="100" height="47.5" as="geometry" />
        </mxCell>
        <mxCell id="CBAgTlsIs-DkMfHLFl_2-61" value="No" style="text;html=1;align=center;verticalAlign=middle;resizable=0;points=[];autosize=1;strokeColor=none;fillColor=none;" vertex="1" parent="1">
          <mxGeometry x="1150" y="870" width="40" height="30" as="geometry" />
        </mxCell>
        <mxCell id="CBAgTlsIs-DkMfHLFl_2-65" value="Rollback" style="html=1;strokeColor=#000000;strokeWidth=2;fontSize=18;direction=east;whiteSpace=wrap;rotation=-90;" vertex="1" parent="1">
          <mxGeometry x="670" y="705" width="70" height="30" as="geometry" />
        </mxCell>
        <mxCell id="CBAgTlsIs-DkMfHLFl_2-66" value="" style="endArrow=classic;html=1;rounded=0;entryX=0;entryY=0.5;entryDx=0;entryDy=0;exitX=1;exitY=0.5;exitDx=0;exitDy=0;" edge="1" parent="1" source="CBAgTlsIs-DkMfHLFl_2-65" target="CBAgTlsIs-DkMfHLFl_2-30">
          <mxGeometry width="50" height="50" relative="1" as="geometry">
            <mxPoint x="820" y="710" as="sourcePoint" />
            <mxPoint x="870" y="660" as="targetPoint" />
            <Array as="points">
              <mxPoint x="705" y="665" />
            </Array>
          </mxGeometry>
        </mxCell>
        <mxCell id="CBAgTlsIs-DkMfHLFl_2-79" value="" style="edgeStyle=orthogonalEdgeStyle;rounded=0;orthogonalLoop=1;jettySize=auto;html=1;" edge="1" parent="1" source="CBAgTlsIs-DkMfHLFl_2-68" target="CBAgTlsIs-DkMfHLFl_2-69">
          <mxGeometry relative="1" as="geometry" />
        </mxCell>
        <mxCell id="CBAgTlsIs-DkMfHLFl_2-68" value="Output best layout" style="whiteSpace=wrap;html=1;strokeColor=#000000;strokeWidth=2;fontSize=18;" vertex="1" parent="1">
          <mxGeometry x="740" y="820" width="170" height="30" as="geometry" />
        </mxCell>
        <mxCell id="CBAgTlsIs-DkMfHLFl_2-69" value="&lt;p style=&quot;line-height: 180%; font-size: 18px;&quot;&gt;&lt;span style=&quot;font-size: 18px;&quot;&gt;Final Layout&lt;/span&gt;&lt;/p&gt;" style="strokeWidth=2;html=1;shape=mxgraph.flowchart.document2;whiteSpace=wrap;size=0.25;strokeColor=#000000;fontSize=18;fontColor=#000000;" vertex="1" parent="1">
          <mxGeometry x="725" y="900" width="200" height="35" as="geometry" />
        </mxCell>
        <mxCell id="CBAgTlsIs-DkMfHLFl_2-71" value="No" style="text;html=1;align=center;verticalAlign=middle;resizable=0;points=[];autosize=1;strokeColor=none;fillColor=none;" vertex="1" parent="1">
          <mxGeometry x="1210" y="790" width="40" height="30" as="geometry" />
        </mxCell>
        <mxCell id="CBAgTlsIs-DkMfHLFl_2-72" value="" style="endArrow=classic;html=1;rounded=0;exitX=0;exitY=0.5;exitDx=0;exitDy=0;entryX=0;entryY=0.5;entryDx=0;entryDy=0;" edge="1" parent="1" source="CBAgTlsIs-DkMfHLFl_2-60" target="CBAgTlsIs-DkMfHLFl_2-30">
          <mxGeometry width="50" height="50" relative="1" as="geometry">
            <mxPoint x="940" y="880" as="sourcePoint" />
            <mxPoint x="990" y="830" as="targetPoint" />
            <Array as="points">
              <mxPoint x="730" y="860" />
              <mxPoint x="730" y="665" />
            </Array>
          </mxGeometry>
        </mxCell>
        <mxCell id="CBAgTlsIs-DkMfHLFl_2-73" value="" style="endArrow=classic;html=1;rounded=0;exitX=0.5;exitY=1;exitDx=0;exitDy=0;entryX=0;entryY=0.5;entryDx=0;entryDy=0;" edge="1" parent="1" source="CBAgTlsIs-DkMfHLFl_2-60" target="CBAgTlsIs-DkMfHLFl_2-65">
          <mxGeometry width="50" height="50" relative="1" as="geometry">
            <mxPoint x="900" y="890" as="sourcePoint" />
            <mxPoint x="950" y="840" as="targetPoint" />
            <Array as="points">
              <mxPoint x="705" y="883" />
            </Array>
          </mxGeometry>
        </mxCell>
        <mxCell id="CBAgTlsIs-DkMfHLFl_2-75" value="" style="endArrow=classic;html=1;rounded=0;entryX=0;entryY=0.5;entryDx=0;entryDy=0;exitX=1;exitY=0.5;exitDx=0;exitDy=0;" edge="1" parent="1" source="CBAgTlsIs-DkMfHLFl_2-43" target="CBAgTlsIs-DkMfHLFl_2-47">
          <mxGeometry width="50" height="50" relative="1" as="geometry">
            <mxPoint x="900" y="890" as="sourcePoint" />
            <mxPoint x="950" y="840" as="targetPoint" />
          </mxGeometry>
        </mxCell>
        <mxCell id="CBAgTlsIs-DkMfHLFl_2-76" value="" style="endArrow=classic;html=1;rounded=0;entryX=0.5;entryY=0;entryDx=0;entryDy=0;exitX=0.5;exitY=1;exitDx=0;exitDy=0;" edge="1" parent="1" source="CBAgTlsIs-DkMfHLFl_2-47" target="CBAgTlsIs-DkMfHLFl_2-68">
          <mxGeometry width="50" height="50" relative="1" as="geometry">
            <mxPoint x="630" y="900" as="sourcePoint" />
            <mxPoint x="680" y="850" as="targetPoint" />
            <Array as="points">
              <mxPoint x="1135" y="810" />
              <mxPoint x="825" y="810" />
            </Array>
          </mxGeometry>
        </mxCell>
        <mxCell id="CBAgTlsIs-DkMfHLFl_2-78" value="" style="endArrow=classic;html=1;rounded=0;exitX=1;exitY=0.5;exitDx=0;exitDy=0;entryX=0.5;entryY=0;entryDx=0;entryDy=0;" edge="1" parent="1" source="CBAgTlsIs-DkMfHLFl_2-47" target="CBAgTlsIs-DkMfHLFl_2-60">
          <mxGeometry width="50" height="50" relative="1" as="geometry">
            <mxPoint x="1020" y="720" as="sourcePoint" />
            <mxPoint x="1070" y="670" as="targetPoint" />
          </mxGeometry>
        </mxCell>
      </root>
    </mxGraphModel>
  </diagram>
</mxfile>
